<svg xmlns="http://www.w3.org/2000/svg" xmlns:xlink="http://www.w3.org/1999/xlink" fill="#212529" width="100px" height="100px" viewBox="0 0 512 512" enable-background="new 0 0 512 512" id="couch_1_" version="1.1" xml:space="preserve">
<path d="M448.277,189.944h-1.727v-48.459c0-19.586-15.939-35.521-35.533-35.521H101.283  c-19.586,0-35.52,15.935-35.52,35.521v50.939h-2.039c-19.125,0-34.686,15.56-34.686,34.686v65.22h0.323v74.242  c0,8.568,6.972,15.539,15.541,15.539h10.894v14.557c0,5.165,4.202,9.367,9.366,9.367h8.4c5.164,0,9.365-4.202,9.365-9.367v-14.557  h346.457v14.557c0,5.165,4.201,9.367,9.365,9.367h8.4c5.164,0,9.367-4.202,9.367-9.367v-14.557h10.906  c8.568,0,15.537-6.971,15.537-15.539v-74.161v-7.28V224.63C482.961,205.504,467.402,189.944,448.277,189.944z M72.963,141.485  c0-15.616,12.704-28.32,28.319-28.32h309.735c15.623,0,28.334,12.704,28.334,28.32v48.459h-5.684  c-9.695,0-17.584,7.889-17.584,17.586v28.513c-33.221-21.594-69.889-35.985-109.111-42.784  c-33.758-5.854-67.955-5.787-101.646,0.194c-40.06,7.097-77.369,22.082-111.014,44.547v-27.99c0-9.696-7.889-17.585-17.585-17.585  h-3.765V141.485z M416.084,244.683v40.444H309.963v-83.985C348.17,208.345,383.842,222.975,416.084,244.683z M205.056,200.834  c0.511-0.093,1.016-0.201,1.527-0.291c32.865-5.837,66.229-5.901,99.159-0.189c0.863,0.149,1.715,0.324,2.574,0.48h-5.553v84.293  h-93.209v-84.293H205.056z M202.354,201.351v83.776H94.313v-38.414C126.981,224.104,163.299,208.862,202.354,201.351z   M36.239,227.11c0-15.155,12.329-27.485,27.485-27.485h13.004c5.728,0,10.386,4.659,10.386,10.385v75.121H36.239V227.11z   M75.728,396.668c0,1.195-0.971,2.166-2.165,2.166h-8.4c-1.195,0-2.166-0.971-2.166-2.166v-13.913h12.731V396.668z M449.318,396.668  c0,1.195-0.973,2.166-2.168,2.166h-8.4c-1.195,0-2.166-0.971-2.166-2.166v-13.913h12.734V396.668z M475.762,366.572  c0,4.599-3.74,8.34-8.338,8.34H44.903c-4.599,0-8.341-3.741-8.341-8.34V292.33h57.751h7.087h309.526h5.158v0.081h59.678V366.572z   M475.762,285.131h-52.479V207.53c0-5.727,4.658-10.386,10.385-10.386h14.609c15.156,0,27.484,12.33,27.484,27.485V285.131z" id="couch" stroke="#212529" stroke-width="15"/>
</svg>