<svg xmlns="http://www.w3.org/2000/svg" xmlns:xlink="http://www.w3.org/1999/xlink" fill="#212529" height="100px" width="100px" version="1.1" id="Layer_1" viewBox="0 0 512 512" xml:space="preserve">
<g>
	<g>
		<path d="M393.434,208.265V108.058h-59.285v51.298l-1.19-0.982L256,94.882l-76.959,63.49l-60.475,49.891l-63.695,52.548    l10.289,12.471l53.406-44.06v184.959h274.868V229.226v-0.001l53.406,44.06l10.289-12.471L393.434,208.265z M291.032,398.015    h-70.064V296.691h70.064V398.015z M377.265,398.015h-70.064V280.523H204.799v117.492h-70.064V215.887L256,115.842l78.149,64.473    l43.117,35.571V398.015z M377.265,194.924l-26.948-22.232v-48.467h26.948V194.924z"/>
	</g>
</g>
<g>
	<g>
		<rect x="248.459" y="248.189" width="16.169" height="16.169"/>
	</g>
</g>
<g>
	<g>
		<rect x="216.122" y="248.189" width="16.169" height="16.169"/>
	</g>
</g>
<g>
	<g>
		<rect x="280.796" y="248.189" width="16.169" height="16.169"/>
	</g>
</g>
<g>
	<g>
		<path d="M115.198,442.408l-8.553,13.721c4.741,2.957,9.648,5.756,14.585,8.324l7.459-14.346    C124.124,447.733,119.585,445.142,115.198,442.408z"/>
	</g>
</g>
<g>
	<g>
		<path d="M139.073,47.177c-5.159,2.102-10.306,4.44-15.296,6.949l7.263,14.445c4.611-2.319,9.366-4.479,14.131-6.42L139.073,47.177    z"/>
	</g>
</g>
<g>
	<g>
		<path d="M49.723,377.015l-13.668,8.639c2.972,4.701,6.153,9.349,9.454,13.813l13.001-9.614    C55.44,385.704,52.485,381.384,49.723,377.015z"/>
	</g>
</g>
<g>
	<g>
		<path d="M18.148,289.766l-16.025,2.146c0.738,5.506,1.683,11.056,2.807,16.495l15.833-3.274    C19.714,300.065,18.835,294.895,18.148,289.766z"/>
	</g>
</g>
<g>
	<g>
		<path d="M29.225,335.108l-15.207,5.496c1.893,5.235,3.996,10.461,6.252,15.532l14.773-6.573    C32.944,344.845,30.986,339.981,29.225,335.108z"/>
	</g>
</g>
<g>
	<g>
		<path d="M95.068,71.496c-4.521,3.238-8.982,6.699-13.259,10.285l10.39,12.39c3.962-3.323,8.095-6.53,12.284-9.531L95.068,71.496z"/>
	</g>
</g>
<g>
	<g>
		<path d="M0.673,241.847C0.258,247.373,0.031,252.995,0,258.555l16.169,0.091c0.029-5.187,0.24-10.432,0.627-15.589L0.673,241.847z    "/>
	</g>
</g>
<g>
	<g>
		<path d="M57.819,105.187c-3.675,4.164-7.248,8.527-10.62,12.971l12.88,9.773c3.131-4.126,6.449-8.178,9.862-12.045L57.819,105.187    z"/>
	</g>
</g>
<g>
	<g>
		<path d="M9.669,192.543c-1.572,5.325-2.972,10.78-4.162,16.213l15.794,3.461c1.108-5.059,2.412-10.139,3.875-15.097L9.669,192.543    z"/>
	</g>
</g>
<g>
	<g>
		<path d="M28.958,146.244c-2.681,4.873-5.217,9.905-7.539,14.957l14.693,6.751c2.159-4.7,4.518-9.382,7.013-13.915L28.958,146.244z    "/>
	</g>
</g>
<g>
	<g>
		<path d="M78.791,413.421l-11.44,11.426c3.937,3.943,8.07,7.78,12.285,11.408L90.184,424    C86.275,420.636,82.442,417.077,78.791,413.421z"/>
	</g>
</g>
<g>
	<g>
		<path d="M187.624,33.919c-5.529,0.813-11.087,1.86-16.523,3.113l3.629,15.756c5.017-1.156,10.146-2.121,15.246-2.872    L187.624,33.919z"/>
	</g>
</g>
<g>
	<g>
		<path d="M157.256,462.192l-5.094,15.345c5.303,1.76,10.745,3.326,16.17,4.654l3.844-15.705    C167.168,465.261,162.148,463.816,157.256,462.192z"/>
	</g>
</g>
<g>
	<g>
		<path d="M202.772,471.412l-1.282,16.118c5.547,0.441,11.195,0.665,16.783,0.665v-16.169    C213.11,472.027,207.895,471.82,202.772,471.412z"/>
	</g>
</g>
<g>
	<g>
		<polygon points="199.484,1.793 188.689,13.829 218.629,40.687 188.689,67.545 199.484,79.581 242.842,40.687   "/>
	</g>
</g>
<g>
	<g>
		<path d="M491.73,155.864l-14.773,6.573c2.099,4.718,4.057,9.582,5.818,14.455l15.207-5.496    C496.089,166.16,493.986,160.935,491.73,155.864z"/>
	</g>
</g>
<g>
	<g>
		<path d="M466.491,112.532l-13.001,9.614c3.07,4.15,6.026,8.47,8.787,12.839l13.668-8.639    C472.973,121.645,469.792,116.997,466.491,112.532z"/>
	</g>
</g>
<g>
	<g>
		<path d="M507.071,203.593l-15.833,3.274c1.049,5.068,1.928,10.238,2.615,15.368l16.025-2.146    C509.139,214.582,508.195,209.032,507.071,203.593z"/>
	</g>
</g>
<g>
	<g>
		<path d="M293.727,23.806v16.169c5.163,0,10.378,0.207,15.501,0.614l1.282-16.118C304.963,24.03,299.315,23.806,293.727,23.806z"/>
	</g>
</g>
<g>
	<g>
		<path d="M432.364,75.746L421.816,88c3.909,3.364,7.742,6.923,11.392,10.58l11.44-11.426    C440.712,83.211,436.578,79.373,432.364,75.746z"/>
	</g>
</g>
<g>
	<g>
		<path d="M390.771,47.548l-7.459,14.346c4.565,2.374,9.104,4.964,13.491,7.698l8.553-13.721    C400.616,52.915,395.708,50.115,390.771,47.548z"/>
	</g>
</g>
<g>
	<g>
		<path d="M343.669,29.81l-3.844,15.705c5.007,1.226,10.027,2.67,14.919,4.294l5.094-15.345    C354.535,32.704,349.094,31.138,343.669,29.81z"/>
	</g>
</g>
<g>
	<g>
		<path d="M419.803,417.829c-3.963,3.323-8.096,6.53-12.284,9.531l9.414,13.144c4.521-3.238,8.982-6.699,13.259-10.285    L419.803,417.829z"/>
	</g>
</g>
<g>
	<g>
		<path d="M475.888,344.048c-2.159,4.701-4.518,9.382-7.013,13.915l14.167,7.793c2.681-4.873,5.217-9.905,7.539-14.957    L475.888,344.048z"/>
	</g>
</g>
<g>
	<g>
		<path d="M451.92,384.069c-3.13,4.126-6.449,8.179-9.862,12.045l12.122,10.699c3.675-4.164,7.248-8.527,10.62-12.971    L451.92,384.069z"/>
	</g>
</g>
<g>
	<g>
		<path d="M490.7,299.783c-1.109,5.06-2.413,10.139-3.876,15.098l15.508,4.576c1.572-5.325,2.972-10.78,4.162-16.213L490.7,299.783z    "/>
	</g>
</g>
<g>
	<g>
		<path d="M337.27,459.212c-5.017,1.156-10.146,2.121-15.246,2.872l2.352,15.997c5.529-0.813,11.087-1.86,16.523-3.113    L337.27,459.212z"/>
	</g>
</g>
<g>
	<g>
		<path d="M380.959,443.429c-4.61,2.319-9.366,4.479-14.131,6.42l6.099,14.974c5.159-2.102,10.306-4.44,15.296-6.949    L380.959,443.429z"/>
	</g>
</g>
<g>
	<g>
		<path d="M495.831,253.355c-0.029,5.188-0.24,10.432-0.627,15.589l16.123,1.209c0.415-5.526,0.641-11.148,0.673-16.708    L495.831,253.355z"/>
	</g>
</g>
<g>
	<g>
		<polygon points="323.311,444.455 312.516,432.419 269.158,471.313 312.516,510.207 323.311,498.171 293.371,471.313   "/>
	</g>
</g>
<g>
	<g>
		<rect x="269.478" y="337.117" width="16.169" height="16.169"/>
	</g>
</g>
</svg>