<svg xmlns="http://www.w3.org/2000/svg" xmlns:xlink="http://www.w3.org/1999/xlink" fill="#212529" height="100px" width="100px" version="1.1" id="Capa_1" viewBox="0 0 60 60" xml:space="preserve">
<g>
	<g>
		<path d="M60,11c0-0.1,0-0.2-0.1-0.3v-0.1c-0.1-0.1-0.1-0.2-0.2-0.3l-10-10c-0.1-0.1-0.2-0.1-0.3-0.2h-0.1C49.2,0.1,49.1,0,49,0    l0,0H1C0.4,0,0,0.4,0,1v50c0,0.6,0.4,1,1,1h4v-2H2v-3h3v-2H2V2h46v9c0,0.6,0.4,1,1,1h9v33h-4v2h4v3h-4v2h5c0.6,0,1-0.4,1-1V11    L60,11z M50,10V3.4l6.6,6.6H50z"/>
		<path d="M51,25c0-0.6-0.4-1-1-1h-8c-0.6,0-1,0.4-1,1v33h-3V37c0-0.6-0.4-1-1-1h-8c-0.6,0-1,0.4-1,1v21h-3V47c0-0.6-0.4-1-1-1h-8    c-0.6,0-1,0.4-1,1v11h-5V22H8v37c0,0.6,0.4,1,1,1h7h8h5h8h5h8h6v-2h-5V25z M49,26v3h-6v-3H49z M36,38v3h-6v-3H36z M23,48v3h-6v-3    H23z M17,58v-5h6v5H17z M30,58V43h6v15H30z M43,58V31h6v27H43z"/>
		<rect x="5" y="5" width="6" height="2"/>
		<rect x="5" y="9" width="14" height="2"/>
		<rect x="5" y="13" width="2" height="2"/>
		<rect x="9" y="13" width="2" height="2"/>
		<rect x="13" y="13" width="2" height="2"/>
		<path d="M15.8,34.7L38,12.5V16h2v-6c0-0.6-0.4-1-1-1h-6v2h3.6L14.3,33.3L15.8,34.7z"/>
		<rect x="15" y="42" width="2" height="2"/>
		<rect x="19" y="42" width="2" height="2"/>
		<rect x="19" y="38" width="2" height="2"/>
		<rect x="32" y="28" width="2" height="2"/>
		<rect x="45" y="16" width="2" height="2"/>
		<rect x="23" y="42" width="2" height="2"/>
		<rect x="28" y="32" width="2" height="2"/>
		<rect x="32" y="32" width="2" height="2"/>
		<rect x="36" y="32" width="2" height="2"/>
		<rect x="41" y="20" width="2" height="2"/>
		<rect x="45" y="20" width="2" height="2"/>
		<rect x="49" y="20" width="2" height="2"/>
	</g>
</g>
</svg>